<?xml version="1.0" standalone="no"?>
<!DOCTYPE svg PUBLIC "-//W3C//DTD SVG 1.1//EN" "http://www.w3.org/Graphics/SVG/1.1/DTD/svg11.dtd" >
<svg xmlns="http://www.w3.org/2000/svg">
<metadata>Generated by IcoMoon</metadata>
<defs>
<font id="ldkicons" horiz-adv-x="1024">
<font-face units-per-em="1024" ascent="960" descent="-64" />
<missing-glyph horiz-adv-x="1024" />
<glyph unicode="&#x20;" horiz-adv-x="512" d="" />
<glyph unicode="&#xe900;" glyph-name="web" horiz-adv-x="1359" d="M167.511 761.303h99.457v-626.171h-99.457v626.171zM366.425 35.457h626.171v-99.457h-626.171v99.457zM266.968 134.913h99.457v-99.457h-99.457v99.457zM1092.055 761.303h99.457v-626.171h-99.457v626.171zM992.598 134.913h99.457v-99.457h-99.457v99.457zM366.425 960h626.171v-99.457h-626.171v99.457zM992.598 860.543h99.457v-99.457h-99.457v99.457zM266.968 860.543h99.457v-99.457h-99.457v99.457zM654.701 860.543h49.623v-825.087h-49.623v825.087zM316.587 509.974h725.63v-49.623h-725.63v49.623zM1042.219 460.135h49.623v-49.623h-49.623v49.623zM266.968 460.135h49.623v-49.623h-49.623v49.623zM454.065 810.92h49.623v-725.63h-49.623v725.63zM503.905 860.543h49.623v-49.623h-49.623v49.623zM503.905 85.29h49.623v-49.623h-49.623v49.623zM848.46 810.92h49.623v-725.63h-49.623v725.63zM798.837 85.29h49.623v-49.623h-49.623v49.623zM798.837 860.543h49.623v-49.623h-49.623v49.623zM316.587 734.879h725.63v-49.623h-725.63v49.623zM1042.219 685.26h49.623v-49.623h-49.623v49.623zM266.968 685.26h49.623v-49.623h-49.623v49.623zM316.587 222.987h725.63v-49.623h-725.63v49.623zM266.968 272.821h49.623v-49.623h-49.623v49.623zM1042.219 272.821h49.623v-49.623h-49.623v49.623z" />
<glyph unicode="&#xe901;" glyph-name="snake_tail" horiz-adv-x="532" d="M62.304 960.073h407.392v-407.392h-407.392v407.392zM138.517 475.872h255.166v-255.166h-255.166v255.166zM184.837 98.367h162.525v-162.525h-162.525v162.525z" />
<glyph unicode="&#xe902;" glyph-name="snake_head" horiz-adv-x="751" d="M-0.009 941.1h465.641v-465.641h-465.641v465.641zM-0.009 475.459h751.018v-520.56h-751.018v520.56z" />
<glyph unicode="&#xe904;" glyph-name="trophy" horiz-adv-x="1359" d="M530.328 360.113h61.535v-61.537h-61.537v61.537zM468.791 360.113h61.537v-61.537h-61.537v61.537zM468.791 421.647h61.537v-61.535h-61.537v61.535zM407.261 421.647h61.535v-61.535h-61.535v61.535zM407.261 483.178h61.535v-61.537h-61.535v61.535zM345.726 960h61.535v-538.353h-61.535v538.353zM407.261 960h544.479v-61.535h-544.479v61.535zM284.074 840.242h61.535v-61.535h-61.535v61.535zM222.538 840.242h61.535v-61.535h-61.535v61.535zM161.005 840.242h61.537v-61.535h-61.537v61.535zM284.074 593.988h61.535v-61.535h-61.535v61.535zM222.538 593.988h61.535v-61.535h-61.535v61.535zM222.538 655.521h61.535v-61.535h-61.535v61.535zM161.005 655.521h61.537v-61.535h-61.537v61.535zM161.005 717.176h61.537v-61.535h-61.537v61.535zM161.005 778.713h61.537v-61.535h-61.537v61.535zM591.981 298.459h61.537v-239.391h-61.537v239.393zM591.981 120.602h61.537v-61.535h-61.537v61.537zM530.328 120.602h61.535v-61.535h-61.537v61.537zM468.791 59.068h61.537v-61.537h-61.537v61.537zM468.791-2.463h421.414v-61.537h-421.414v61.537zM767.019 360.113h61.537v-61.537h-61.537v61.537zM828.554 360.113h61.537v-61.537h-61.537v61.537zM828.554 421.647h61.537v-61.535h-61.537v61.535zM890.212 421.647h61.535v-61.535h-61.537v61.535zM890.212 483.178h61.535v-61.537h-61.537v61.535zM951.741 960h61.535v-538.353h-61.537v538.353zM1013.277 840.242h61.535v-61.535h-61.537v61.535zM1074.807 840.242h61.535v-61.535h-61.535v61.535zM1136.465 840.242h61.537v-61.535h-61.537v61.535zM1013.277 593.988h61.535v-61.535h-61.537v61.535zM1074.807 593.988h61.535v-61.535h-61.535v61.535zM1074.807 655.521h61.535v-61.535h-61.535v61.535zM1136.465 655.521h61.537v-61.535h-61.537v61.535zM1136.465 717.176h61.537v-61.535h-61.537v61.535zM1136.465 778.713h61.537v-61.535h-61.537v61.535zM705.488 298.459h61.537v-239.391h-61.537v239.393zM705.488 120.602h61.537v-61.535h-61.537v61.537zM767.019 120.602h61.537v-61.535h-61.537v61.537zM828.554 59.068h61.537v-61.537h-61.537v61.537z" />
<glyph unicode="&#xe905;" glyph-name="controller_inactive" horiz-adv-x="1359" d="M241.346 634.22h637.929v-46.22h-637.929v46.22zM148.897 587.991h92.45v-46.22h-92.45v46.22zM102.677 541.771h46.22v-92.45h-46.22v92.45zM56.456 449.321h46.22v-303.883h-46.22v303.883zM1256.317 449.321h46.22v-303.883h-46.22v303.883zM479.717 634.22h637.929v-46.22h-637.929v46.22zM1117.648 587.991h92.45v-46.22h-92.45v46.22zM1210.097 541.771h46.22v-92.45h-46.22v92.45zM1210.978 146.219h45.339v-92.45h-45.339v92.45zM149.778 53.77h281.459v-46.22h-281.459v46.22zM103.559 146.219h46.22v-92.45h-46.22v92.45zM477.073 242.098h46.22v-95.879h-46.22v95.879zM430.845 146.219h46.22v-92.45h-46.22v92.45zM929.52 53.77h281.459v-46.22h-281.459v46.22zM837.368 242.098h46.22v-95.879h-46.22v95.879zM883.587 146.219h46.22v-92.45h-46.22v92.45zM523.39 288.318h313.872v-46.22h-313.872v46.22zM287.472 442.365h67.672v-204.286h-67.672v204.286zM219.118 374.012h204.286v-67.672h-204.286v67.672zM1022.65 454.218h67.672v-67.672h-67.672v67.672zM939.897 374.012h67.672v-67.672h-67.672v67.672zM1105.307 374.012h67.672v-67.672h-67.672v67.672zM1022.65 293.705h67.672v-67.672h-67.672v67.672zM560.316 498.388h67.672v-67.672h-67.672v67.672zM755.784 498.388h64.339c0.917 0 1.667-0.743 1.667-1.667v-64.339c0-0.917-0.743-1.667-1.667-1.667h-64.339c-0.917 0-1.667 0.743-1.667 1.667v64.339c0 0.917 0.743 1.667 1.667 1.667zM646.494 888.45h67.672v-300.458h-67.672v300.458z" />
<glyph unicode="&#xe906;" glyph-name="controller_active" horiz-adv-x="1359" d="M102.689 541.77h46.221v-92.449h-46.221v92.449zM56.462 449.321h46.221v-303.882h-46.221v303.882zM1256.325 449.321h46.221v-303.882h-46.221v303.882zM241.359 634.218h876.296v-46.221h-876.296v46.221zM1210.103 541.77h46.221v-315.634h-46.221v315.634zM149.696 53.772h281.457v-46.221h-281.457v46.221zM477.084 242.195h46.221v-95.877h-46.221v95.877zM929.528 53.772h281.457v-46.221h-281.457v46.221zM837.373 242.195h46.221v-95.877h-46.221v95.877zM148.911 587.992h70.22v-350.009h-70.22v350.009zM102.689 238.084h374.395v-184.306h-374.395v184.306zM883.598 226.135h372.729v-172.358h-372.729v172.358zM646.503 888.448h67.671v-254.23h-67.671v254.23zM1172.986 587.992h37.116v-365.58h-37.116v365.58zM148.911 587.992h1024.071v-89.605h-1024.071v89.605zM423.515 430.714h516.397v-188.616h-516.397v188.616zM355.156 306.438h131.914v-78.931h-131.914v78.931zM216.679 306.438h70.806v-74.133h-70.806v74.133zM102.689 449.321h47.103v-211.239h-47.103v211.239zM355.156 498.387h205.166v-67.671h-205.166v67.671zM219.13 498.387h68.354v-124.374h-68.354v124.374zM256.833 442.368v68.354h124.374v-68.354h-124.374zM355.156 374.109v68.354h124.374v-68.354h-124.374zM627.995 498.876h126.137v-68.16h-126.137v68.16zM821.8 498.876h200.86v-68.16h-200.86v68.16zM881.049 306.438h141.61v-80.205h-141.61v80.205zM881.049 454.315h141.61v-80.205h-141.61v80.205zM1090.235 306.438h141.61v-80.205h-141.61v80.205zM1090.235 454.315h141.61v-80.205h-141.61v80.205zM976.045 534.521h196.941v-80.205h-196.941v80.205zM1007.481 386.643h97.834v-92.841h-97.834v92.841z" />
<glyph unicode="&#xe907;" glyph-name="game" horiz-adv-x="1359" d="M678.657 880.756h103.028v-364.923h-103.028v364.923zM598.845 800.184h262.463v-203.401h-262.463v203.401zM285.058 16.001h788.716v-80.002h-788.716v80.002zM285.058 96.003h788.716v-80.002h-788.716v80.002zM285.058 176.005h80.002v-80.002h-80.002v80.002zM993.942 176.005h80.002v-80.002h-80.002v80.002zM445.060 335.82h468.879v-80.002h-468.879v80.002zM365.060 256.008h80.002v-80.002h-80.002v80.002zM913.94 256.008h80.002v-80.002h-80.002v80.002zM639.585 516.783h80.002v-358.511h-80.002v358.511zM497.883 596.595h80.002v-80.002h-80.002v80.002zM781.306 596.595h80.002v-80.002h-80.002v80.002zM781.306 879.997h80.002v-80.002h-80.002v80.002zM497.883 879.997h100.941v-80.002h-100.941v80.002zM577.696 516.783h203.401v-80.002h-203.401v80.002zM577.696 959.999h203.401v-80.002h-203.401v80.002zM416.383 800.184h102.459v-203.401h-102.459v203.401zM861.117 800.184h80.002v-203.401h-80.002v203.401zM496.385 720.182h102.459v-123.587h-102.459v123.587zM577.696 596.595h101.7v-80.002h-101.7v80.002z" />
<glyph unicode="&#xe908;" glyph-name="strong_ghost" horiz-adv-x="1035" d="M5.385 960.115h131.36v-1024.231h-131.36v1024.231zM897.949 960.115h131.36v-1024.231h-131.36v1024.231zM5.385 960.115h1024.231v-131.36h-1024.231v131.36zM260.755 608.908h131.36v-131.36h-131.36v131.36zM631.256 608.908h131.36v-131.36h-131.36v131.36zM355.983 376.807h313.853v-131.36h-313.853v131.36zM224.623 245.451h131.36v-131.36h-131.36v131.36zM669.835 245.451h131.36v-131.36h-131.36v131.36zM601.868 676.821l17.052-63.584 126.88 34.018-17.052 63.584-126.88-34.018zM282.667 647.392l126.88-34.018 17.052 63.584-126.88 34.018-17.052-63.584z" />
<glyph unicode="&#xe909;" glyph-name="weak_ghost" horiz-adv-x="1035" d="M5.385 960.103h131.36v-1024.231h-131.36v1024.231zM898.258 960.103h131.36v-1024.231h-131.36v1024.231zM5.385 960.103h1024.231v-131.36h-1024.231v131.36zM224.62 700.757h131.36v-131.36h-131.36v131.36zM669.835 700.757h131.36v-131.36h-131.36v131.36zM224.62 438.041h576.57v-131.36h-576.57v131.36z" />
<glyph unicode="&#xe90a;" glyph-name="toggle_on" horiz-adv-x="1359" d="M186.163 755.237h642.279v-46.635h-642.279zM93.019 708.602h93.145v-46.508h-93.145v46.508zM46.51 662.094h46.508v-93.145h-46.508v93.145zM-0.125 568.949h46.508v-242.023h-46.508v242.023zM186.163 187.271h642.405v-46.508h-642.405v46.508zM93.019 233.781h93.145v-46.508h-93.145v46.508zM46.51 326.925h46.508v-93.145h-46.508v93.145zM530.558 187.271h642.405v-46.508h-642.405v46.508zM1172.963 233.781h93.145v-46.508h-93.145v46.508zM1265.981 326.925h46.508v-93.145h-46.508v93.145zM1312.616 568.949h46.508v-242.023h-46.508v242.023zM530.558 755.237h642.405v-46.508h-642.405v46.508zM1172.963 708.602h93.145v-46.508h-93.145v46.508zM1265.981 662.094h46.508v-93.145h-46.508v93.145zM1189.14 522.186h30.332v-157.726h-30.332v157.726zM1158.934 364.461h30.205v-60.663h-30.205v60.663zM1189.14 522.186v-157.726h-30.332v-60.663h-60.663v-29.7h-193.998v29.7h-60.663v60.663h-30.458v157.726h30.332v60.663h60.663v30.332h193.998v-30.332h60.663v-60.663zM1158.934 582.725h30.205v-60.663h-30.205v60.663zM1098.143 303.797h60.663v-30.205h-60.663v30.205zM1098.143 613.183h60.663v-30.332h-60.663v30.332zM1013.214 273.466h84.929v-30.332h-84.929v30.332zM1013.214 643.515h84.929v-30.332h-84.929v30.332zM988.949 273.466h24.266v-30.332h-24.266v30.332zM988.949 643.515h24.266v-30.332h-24.266v30.332zM904.020 273.466h84.929v-30.332h-84.929v30.332zM904.020 643.515h84.929v-30.332h-84.929v30.332zM843.482 303.797h60.663v-30.205h-60.663v30.205zM843.482 613.183h60.663v-30.332h-60.663v30.332zM813.15 364.461h30.332v-60.663h-30.332v60.663zM813.15 582.725h30.332v-60.663h-30.332v60.663zM782.818 522.186h30.332v-157.726h-30.332v157.726z" />
<glyph unicode="&#xe90b;" glyph-name="toggle_off" horiz-adv-x="1359" d="M186.163 755.173h642.279v-46.508h-642.279zM93.019 708.663h93.145v-46.508h-93.145v46.508zM46.51 662.155h46.508v-93.145h-46.508v93.145zM-0.125 569.010h46.508v-242.023h-46.508v242.023zM186.163 187.334h642.405v-46.508h-642.405v46.508zM93.019 233.842h93.145v-46.508h-93.145v46.508zM46.51 326.987h46.508v-93.145h-46.508v93.145zM530.558 187.334h642.405v-46.508h-642.405v46.508zM1172.963 233.842h93.145v-46.508h-93.145v46.508zM1266.106 326.987h46.508v-93.145h-46.508v93.145zM1312.616 569.010h46.508v-242.023h-46.508v242.023zM530.558 755.173h642.405v-46.508h-642.405v46.508zM1172.963 708.663h93.145v-46.508h-93.145v46.508zM1266.106 662.155h46.508v-93.145h-46.508v93.145zM536.624 522.249h30.332v-157.726h-30.332v157.726zM506.418 364.522h30.205v-60.663h-30.205v60.663zM536.624 522.249v-157.726h-30.205v-60.663h-60.663v-30.332h-194.377v30.332h-60.663v60.663h-30.332v157.726h30.332v60.663h60.663v30.332h194.377v-30.332h60.663v-60.663zM506.418 582.786h30.205v-60.663h-30.205v60.663zM445.629 303.732h60.663v-30.205h-60.663v30.205zM445.629 613.117h60.663v-30.332h-60.663v30.332zM360.824 273.527h84.929v-30.332h-84.929v30.332zM360.824 643.449h84.929v-30.332h-84.929v30.332zM336.433 273.527h24.266v-30.332h-24.266v30.332zM336.433 643.449h24.266v-30.332h-24.266v30.332zM251.504 273.527h84.929v-30.332h-84.929v30.332zM251.504 643.449h84.929v-30.332h-84.929v30.332zM190.965 303.732h60.663v-30.205h-60.663v30.205zM190.965 613.117h60.663v-30.332h-60.663v30.332zM160.634 364.522h30.332v-60.663h-30.332v60.663zM160.634 582.786h30.332v-60.663h-30.332v60.663zM130.302 522.249h30.332v-157.726h-30.332v157.726z" />
<glyph unicode="&#xe90c;" glyph-name="square" d="M0 960h1024v-1024h-1024z" />
<glyph unicode="&#xe90d;" glyph-name="arrow_right" horiz-adv-x="1359" d="M386.941 82.237h146.236v-146.236h-146.236v146.236zM533.352 228.473h146.236v-146.236h-146.236v146.236zM679.586 374.882h146.236v-146.236h-146.236v146.236zM825.823 521.118h146.236v-146.236h-146.236v146.236zM386.941 960h146.236v-146.236h-146.236v146.236zM533.352 813.763h146.236v-146.236h-146.236v146.236zM679.586 667.353h146.236v-146.236h-146.236v146.236z" />
<glyph unicode="&#xe90e;" glyph-name="arrow_left" horiz-adv-x="1359" d="M825.839 960h146.236v-146.236h-146.236v146.236zM679.603 813.763h146.236v-146.236h-146.236v146.236zM533.194 667.529h146.236v-146.236h-146.236v146.236zM386.958 521.118h146.236v-146.236h-146.236v146.236zM825.839 82.237h146.236v-146.236h-146.236v146.236zM679.429 228.647h146.236v-146.236h-146.236v146.236zM533.194 374.884h146.236v-146.236h-146.236v146.236z" />
<glyph unicode="&#xe90f;" glyph-name="arrow_down" horiz-adv-x="1359" d="M-0.124 836.341h194.113v-194.113h-194.113v194.113zM193.986 641.999h194.113v-194.113h-194.113v194.113zM388.1 447.886h194.113v-194.113h-194.113v194.113zM582.445 253.772h194.113v-194.113h-194.113v194.113zM1165.012 836.341h194.113v-194.113h-194.113v194.113zM970.669 641.999h194.113v-194.113h-194.113v194.113zM776.556 447.886h194.113v-194.113h-194.113v194.113z" />
<glyph unicode="&#xe910;" glyph-name="arrow_up" horiz-adv-x="1359" d="M1165.012 253.772h194.113v-194.113h-194.113v194.113zM970.667 447.886h194.113v-194.113h-194.113v194.113zM776.554 641.999h194.113v-194.113h-194.113v194.113zM582.443 836.341h194.113v-194.113h-194.113v194.113zM-0.125 253.772h194.113v-194.113h-194.113v194.113zM193.988 447.886h194.113v-194.113h-194.113v194.113zM388.099 641.999h194.113v-194.113h-194.113v194.113z" />
<glyph unicode="&#xe911;" glyph-name="explosion2" horiz-adv-x="1034" d="M2.755 848.655l110.425 110.425 162.656-162.656-110.425-110.425-162.656 162.656zM757.569 795.143l163.933 163.933 110.425-110.425-163.933-163.933-110.425 110.425zM748.875 102.474l110.425 110.425 167.598-167.598-110.425-110.425-167.598 167.598zM2.768 50.375l162.57 162.57 110.425-110.425-162.57-162.57-110.425 110.425z" />
<glyph unicode="&#xe912;" glyph-name="explosion1" horiz-adv-x="1034" d="M-2.041 843.661l110.696 110.696 325.878-325.878-110.696-110.696-325.878 325.878zM589.235 628.456l325.878 325.878 110.696-110.696-325.878-325.878-110.696 110.696zM589.222 256.033l110.696 110.696 325.878-325.878-110.696-110.696-325.878 325.878zM-2.055 40.874l325.878 325.878 110.696-110.696-325.878-325.878-110.696 110.696zM441.433 519.509h156.549v-156.549h-156.549v156.549z" />
<glyph unicode="&#xe913;" glyph-name="mobile" d="M244.89 869.455h90.546v-842.756h-90.546v842.756zM688.414 869.455h90.546v-842.756h-90.546v842.756zM557.275 117.245h221.839v-90.546h-221.839v90.546zM557.275 26.699h131.323v-90.546h-131.323v90.546zM335.435 959.999h353.008v-90.546h-353.008v90.546zM335.435 26.699h131.14v-90.546h-131.14v90.546zM448.465-18.637h131.14v-45.364h-131.14v45.364zM244.89 117.245h221.839v-90.546h-221.839v90.546zM466.575 117.245h90.546v-45.364h-90.546v45.364z" />
<glyph unicode="&#xe914;" glyph-name="search" horiz-adv-x="1109" d="M725.118 571.849l46.783 46.783 46.783-46.783-46.783-46.783-46.783 46.783zM383.826 913.052l46.783 46.783 46.783-46.783-46.783-46.783-46.783 46.783zM383.778 230.614l46.783 46.783 46.783-46.783-46.783-46.783-46.783 46.783zM42.543 571.955l46.783 46.783 46.783-46.783-46.783-46.783-46.783 46.783zM607.742 321.181l73.554 73.554 385.299-385.299-73.554-73.554-385.299 385.299zM577.989 284.013l46.783 46.783 46.783-46.783-46.783-46.783-46.783 46.783zM671.333 377.714l46.783 46.783 46.783-46.783-46.783-46.783-46.783 46.783zM725.176 665.47l46.783 46.783 46.783-46.783-46.783-46.783-46.783 46.783zM477.309 913.327l46.783 46.783 46.783-46.783-46.783-46.783-46.783 46.783zM547.519 889.903l46.783 46.783 201.067-201.067-46.783-46.783-201.067 201.067zM290.263 913.248l46.783 46.783 46.783-46.783-46.783-46.783-46.783 46.783zM42.405 665.381l46.783 46.783 46.783-46.783-46.783-46.783-46.783 46.783zM112.644 688.754l-46.783 46.783 201.067 201.067 46.783-46.783-201.067-201.067zM42.624 478.196l46.783 46.783 46.783-46.783-46.783-46.783-46.783 46.783zM290.352 230.673l46.783 46.783 46.783-46.783-46.783-46.783-46.783 46.783zM313.739 253.933l-46.783-46.783-201.067 201.067 46.783 46.783 201.067-201.067zM477.341 230.418l46.783 46.783 46.783-46.783-46.783-46.783-46.783 46.783zM725.198 478.286l46.783 46.783 46.783-46.783-46.783-46.783-46.783 46.783zM748.476 454.836l46.783-46.783-201.067-201.067-46.783 46.783 201.067 201.067zM590.264 243.11l56.305 56.305 56.305-56.305-56.305-56.305-56.305 56.305zM703.010 355.856l56.305 56.305 56.305-56.305-56.305-56.305-56.305 56.305z" />
<glyph unicode="&#xe915;" glyph-name="cross" horiz-adv-x="1182" d="M130.118-63.999v102.474h51.114v51.114h51.36v51.36h51.114v51.114h51.36v102.474h51.114v50.62h51.114v51.854h51.36v102.227h-51.36v51.36h-51.114v51.114h-51.114v102.474h-51.36v51.114h-51.114v51.114h-51.36v51.36h-51.114v102.227h204.948v-51.114h51.114v-102.474h51.114v-51.114h51.36v-51.114h51.114v-102.474h102.968v102.474h51.114v51.114h51.114v51.114h50.867v102.474h51.114v51.114h204.948v-102.227h-51.36v-51.36h-51.114v-51.114h-51.36v-51.114h-51.114v-102.474h-51.114v-51.114h-51.36v-51.36h-51.114v-102.227h51.114v-51.854h51.36v-51.114h51.114v-101.98h51.114v-51.114h51.36v-51.36h51.114v-51.114h51.36v-102.474h-204.948v51.36h-51.114v102.227h-51.36v51.36h-51.114v51.114h-50.62v102.474h-102.968v-102.474h-51.114v-51.114h-51.36v-51.36h-51.114v-102.227h-51.114v-51.36z" />
<glyph unicode="&#xe916;" glyph-name="pacman" horiz-adv-x="1196" d="M637.404 750.116h131.345v-131.345h-131.345v131.345zM85.756 960.269v-446.57h394.033v-394.033h-394.033v-183.882h1024.487v1024.487zM873.824 566.234h-288.958v315.227h288.958z" />
<glyph unicode="&#xe917;" glyph-name="pacman2" horiz-adv-x="1212" d="M94 960h1024v-1024h-1024zM592.872 566.155h288.82v315.077h-288.82zM645.385 776.205h131.282v-157.538h-131.282v157.538z" />
<glyph unicode="&#xe918;" glyph-name="pacman-power2" horiz-adv-x="1212" d="M94 960h1024v-1024h-1024zM746.734 528.87l205.062 204.012-204.276 204.276-204.276-204.276zM619.128 802.462h131.282v-131.282h-131.282v131.282z" />
<glyph unicode="&#xe919;" glyph-name="pacman-power" horiz-adv-x="1212" d="M94.535 516.983h104.918v-81.575h-104.918v81.575zM251.912 514.097h104.918v-78.689h-104.918v78.689zM94.535 225.572h104.918v-104.918h-104.918v104.918zM251.912 225.572h104.918v-104.918h-104.918v104.918zM94.535 960v-444.591c2.55 0.19 5.525 0.299 8.525 0.299s5.973-0.109 8.92-0.323l-0.395 0.024c0.274 0.002 0.599 0.004 0.922 0.004 8.95 0 17.699-0.861 26.167-2.503l-0.861 0.139h350.165v-393.443h-393.443v-183.607h1022.953v1022.953zM746.339 529.311l-203.803 204.067 203.803 203.803 205.116-203.803zM619.126 802.624h131.148v-131.148h-131.148v131.148z" />
</font>
</defs>
</svg>
