<svg version="1.1" xmlns="http://www.w3.org/2000/svg" width="1109" height="1024" viewBox="0 0 1109 1024">
<title></title>
<path stroke-linejoin="miter" stroke-linecap="butt" stroke-miterlimit="10" stroke-width="13.8652" stroke="var(--disabled-color)" fill="var(--disabled-color)" d="M725.118 388.151l46.783-46.783 46.783 46.783-46.783 46.783-46.783-46.783z"></path>
<path stroke-linejoin="miter" stroke-linecap="butt" stroke-miterlimit="10" stroke-width="13.8652" stroke="var(--disabled-color)" fill="var(--disabled-color)" d="M383.826 46.948l46.783-46.783 46.783 46.783-46.783 46.783-46.783-46.783z"></path>
<path stroke-linejoin="miter" stroke-linecap="butt" stroke-miterlimit="10" stroke-width="13.8652" stroke="var(--disabled-color)" fill="var(--disabled-color)" d="M383.778 729.386l46.783-46.783 46.783 46.783-46.783 46.783-46.783-46.783z"></path>
<path stroke-linejoin="miter" stroke-linecap="butt" stroke-miterlimit="10" stroke-width="13.8652" stroke="var(--disabled-color)" fill="var(--disabled-color)" d="M42.543 388.045l46.783-46.783 46.783 46.783-46.783 46.783-46.783-46.783z"></path>
<path fill="var(--disabled-color)" d="M607.742 638.819l73.554-73.554 385.299 385.299-73.554 73.554-385.299-385.299z"></path>
<path stroke-linejoin="miter" stroke-linecap="butt" stroke-miterlimit="10" stroke-width="13.8652" stroke="var(--disabled-color)" fill="var(--disabled-color)" d="M577.989 675.987l46.783-46.783 46.783 46.783-46.783 46.783-46.783-46.783z"></path>
<path stroke-linejoin="miter" stroke-linecap="butt" stroke-miterlimit="10" stroke-width="13.8652" stroke="var(--disabled-color)" fill="var(--disabled-color)" d="M671.333 582.286l46.783-46.783 46.783 46.783-46.783 46.783-46.783-46.783z"></path>
<path stroke-linejoin="miter" stroke-linecap="butt" stroke-miterlimit="10" stroke-width="13.8652" stroke="var(--disabled-color)" fill="var(--disabled-color)" d="M725.176 294.53l46.783-46.783 46.783 46.783-46.783 46.783-46.783-46.783z"></path>
<path stroke-linejoin="miter" stroke-linecap="butt" stroke-miterlimit="10" stroke-width="13.8652" stroke="var(--disabled-color)" fill="var(--disabled-color)" d="M477.309 46.673l46.783-46.783 46.783 46.783-46.783 46.783-46.783-46.783z"></path>
<path stroke-linejoin="miter" stroke-linecap="butt" stroke-miterlimit="10" stroke-width="13.8652" stroke="var(--disabled-color)" fill="var(--disabled-color)" d="M547.519 70.097l46.783-46.783 201.067 201.067-46.783 46.783-201.067-201.067z"></path>
<path stroke-linejoin="miter" stroke-linecap="butt" stroke-miterlimit="10" stroke-width="13.8652" stroke="var(--disabled-color)" fill="var(--disabled-color)" d="M290.263 46.752l46.783-46.783 46.783 46.783-46.783 46.783-46.783-46.783z"></path>
<path stroke-linejoin="miter" stroke-linecap="butt" stroke-miterlimit="10" stroke-width="13.8652" stroke="var(--disabled-color)" fill="var(--disabled-color)" d="M42.405 294.619l46.783-46.783 46.783 46.783-46.783 46.783-46.783-46.783z"></path>
<path stroke-linejoin="miter" stroke-linecap="butt" stroke-miterlimit="10" stroke-width="13.8652" stroke="var(--disabled-color)" fill="var(--disabled-color)" d="M112.644 271.246l-46.783-46.783 201.067-201.067 46.783 46.783-201.067 201.067z"></path>
<path stroke-linejoin="miter" stroke-linecap="butt" stroke-miterlimit="10" stroke-width="13.8652" stroke="var(--disabled-color)" fill="var(--disabled-color)" d="M42.624 481.804l46.783-46.783 46.783 46.783-46.783 46.783-46.783-46.783z"></path>
<path stroke-linejoin="miter" stroke-linecap="butt" stroke-miterlimit="10" stroke-width="13.8652" stroke="var(--disabled-color)" fill="var(--disabled-color)" d="M290.352 729.327l46.783-46.783 46.783 46.783-46.783 46.783-46.783-46.783z"></path>
<path stroke-linejoin="miter" stroke-linecap="butt" stroke-miterlimit="10" stroke-width="13.8652" stroke="var(--disabled-color)" fill="var(--disabled-color)" d="M313.739 706.067l-46.783 46.783-201.067-201.067 46.783-46.783 201.067 201.067z"></path>
<path stroke-linejoin="miter" stroke-linecap="butt" stroke-miterlimit="10" stroke-width="13.8652" stroke="var(--disabled-color)" fill="var(--disabled-color)" d="M477.341 729.582l46.783-46.783 46.783 46.783-46.783 46.783-46.783-46.783z"></path>
<path stroke-linejoin="miter" stroke-linecap="butt" stroke-miterlimit="10" stroke-width="13.8652" stroke="var(--disabled-color)" fill="var(--disabled-color)" d="M725.198 481.714l46.783-46.783 46.783 46.783-46.783 46.783-46.783-46.783z"></path>
<path stroke-linejoin="miter" stroke-linecap="butt" stroke-miterlimit="10" stroke-width="13.8652" stroke="var(--disabled-color)" fill="var(--disabled-color)" d="M748.476 505.164l46.783 46.783-201.067 201.067-46.783-46.783 201.067-201.067z"></path>
<path fill="var(--disabled-color)" d="M590.264 716.89l56.305-56.305 56.305 56.305-56.305 56.305-56.305-56.305z"></path>
<path fill="var(--disabled-color)" d="M703.010 604.144l56.305-56.305 56.305 56.305-56.305 56.305-56.305-56.305z"></path>
</svg>
