<?xml version="1.0" standalone="no"?>
<!DOCTYPE svg PUBLIC "-//W3C//DTD SVG 20010904//EN"
 "http://www.w3.org/TR/2001/REC-SVG-20010904/DTD/svg10.dtd">
<svg version="1.0" xmlns="http://www.w3.org/2000/svg"
 width="70.000000pt" height="70.000000pt" viewBox="0 0 70.000000 70.000000"
 preserveAspectRatio="xMidYMid meet">
<metadata>
Created by potrace 1.14, written by Peter Selinger 2001-2017
</metadata>
<g transform="translate(0.000000,70.000000) scale(0.100000,-0.100000)"
fill="#000000" stroke="none">
<path d="M170 525 l0 -45 -40 0 c-33 0 -40 -3 -40 -20 0 -15 -7 -20 -25 -20
-25 0 -25 -1 -25 -90 0 -89 0 -90 25 -90 18 0 25 -5 25 -20 0 -17 7 -20 40
-20 33 0 40 -3 40 -20 0 -15 7 -20 25 -20 20 0 25 -5 25 -25 l0 -25 175 0 175
0 0 25 c0 18 5 25 20 25 19 0 20 7 20 195 l0 195 -220 0 -220 0 0 -45z m350
-65 c0 -15 7 -20 25 -20 23 0 25 -4 25 -45 0 -41 -2 -45 -25 -45 -18 0 -25 -5
-25 -20 0 -13 -7 -20 -20 -20 -15 0 -20 -7 -20 -25 0 -18 -5 -25 -20 -25 -13
0 -20 -7 -20 -20 0 -15 -7 -20 -25 -20 -18 0 -25 5 -25 20 0 13 -7 20 -20 20
-15 0 -20 7 -20 25 0 18 -5 25 -20 25 -13 0 -20 7 -20 20 0 15 -7 20 -25 20
-23 0 -25 4 -25 45 0 41 2 45 25 45 18 0 25 5 25 20 0 19 7 20 105 20 98 0
105 -1 105 -20z m-350 -110 c0 -83 -1 -90 -20 -90 -15 0 -20 7 -20 25 0 18 -5
25 -20 25 -17 0 -20 7 -20 40 0 33 3 40 20 40 15 0 20 7 20 25 0 18 5 25 20
25 19 0 20 -7 20 -90z"/>
</g>
</svg>
