<?xml version="1.0" encoding="utf-8"?>
<svg viewBox="0 0 16 16" xmlns="http://www.w3.org/2000/svg" id="diamond-icon">
  <style>
    svg#diamond-icon > g > rect {
      --default-diamond-color: #E6B028;
      paint-order: fill;
      stroke-width: 0.1px;
      stroke: var(--svg-color, var(--default-diamond-color));
      fill: var(--svg-color, var(--default-diamond-color));
    }
  </style>
  <g>
    <rect x="3" y="3" width="10" height="0.977"/>
    <rect x="7" y="13" width="2" height="0.977"/>
    <rect x="6" y="12" width="4" height="0.977"/>
    <rect x="2" y="4" width="12" height="0.977"/>
    <rect y="5" width="2" height="0.977" x="1"/>
    <rect y="6" width="2" height="0.977"/>
    <rect x="1" y="7" width="2" height="0.977"/>
    <rect x="2" y="8" width="12" height="0.977"/>
    <rect x="3" y="9" width="10" height="0.977"/>
    <rect x="4" y="10" width="8" height="0.977"/>
    <rect x="5" y="11" width="6" height="0.977"/>
    <rect y="5" width="3" height="0.977" x="5"/>
    <rect y="6" width="3" height="0.977" x="4"/>
    <rect x="5" y="7" width="1" height="0.977"/>
    <rect y="5" width="1" height="0.977" x="10"/>
    <rect y="6" width="3" height="0.977" x="9"/>
    <rect x="8" y="7" width="3" height="0.977"/>
    <rect y="5" width="2" height="0.977" x="13"/>
    <rect y="6" width="2" height="0.977" x="14"/>
    <rect x="13" y="7" width="2" height="0.977"/>
  </g>
</svg>