<svg id="toggle-icon" data-name="toggle" xmlns="http://www.w3.org/2000/svg" viewBox="0 0 163.76 123.36">
    <defs>
        <style>
            #toggle-icon #ball{
                transition: transform var(--theme-transition-duration) ease, fill var(--theme-transition-duration) var(--theme-transition-function);
            }
            #toggle-icon .cls-1 {
                fill: var(--accent-color);
                stroke: none;
            }
            .light #toggle-icon #ball, .active #toggle-icon #ball{
                transform: translateX(34%);
            }
        </style>
    </defs>
    <g id="frame">
        <path class="cls-1" d="M42.84,33.57H93.66v3.68H42.84Z" />
        <rect class="cls-1" x="35.47" y="37.25" width="7.37" height="3.68" />
        <rect class="cls-1" x="31.79" y="40.93" width="3.68" height="7.37" />
        <rect class="cls-1" x="28.1" y="48.3" width="3.68" height="19.15" />
        <rect class="cls-1" x="42.84" y="78.5" width="50.83" height="3.68" />
        <rect class="cls-1" x="35.47" y="74.82" width="7.37" height="3.68" />
        <rect class="cls-1" x="31.79" y="67.45" width="3.68" height="7.37" />
        <rect class="cls-1" x="70.09" y="78.5" width="50.83" height="3.68" />
        <rect class="cls-1" x="120.92" y="74.82" width="7.37" height="3.68" />
        <rect class="cls-1" x="128.29" y="67.45" width="3.68" height="7.37" />
        <rect class="cls-1" x="131.97" y="48.3" width="3.68" height="19.15" />
        <rect class="cls-1" x="70.09" y="33.57" width="50.83" height="3.68" />
        <rect class="cls-1" x="120.92" y="37.25" width="7.37" height="3.68" />
        <rect class="cls-1" x="128.29" y="40.93" width="3.68" height="7.37" />
    </g>
    <g id="ball" data-name="ball">
        <rect class="cls-1" x="70" y="52" width="3" height="13" />
        <rect class="cls-1" x="68" y="64" width="3" height="5" />
        <path class="cls-1"
            d="M70.57,52V64.48H68.18v4.8h-4.8v2.4H48v-2.4h-4.8v-4.8h-2.4V52h2.4V47.2H48V44.8H63.38v2.4h4.8V52Z" />
        <rect class="cls-1" x="68" y="47" width="3" height="6" />
        <rect class="cls-1" x="63" y="69" width="5" height="3" />
        <rect class="cls-1" x="63" y="44" width="5" height="4" />
        <rect class="cls-1" x="48" y="71" width="15" height="3" />
        <rect class="cls-1" x="48" y="42" width="15" height="4" />
        <rect class="cls-1" x="43" y="69" width="5" height="3" />
        <rect class="cls-1" x="43" y="44" width="5" height="4" />
        <rect class="cls-1" x="40" y="64" width="4" height="5" />
        <rect class="cls-1" x="40" y="47" width="4" height="6" />
        <rect class="cls-1" x="37" y="52" width="4" height="13" />
    </g>
</svg>